<?xml version="1.0" encoding="utf-8"?><svg version="1.1" id="Layer_1" xmlns="http://www.w3.org/2000/svg" xmlns:xlink="http://www.w3.org/1999/xlink" x="0px" y="0px" viewBox="0 0 122.88 108.86" style="enable-background:new 0 0 122.88 108.86" xml:space="preserve"><g><path d="M22.99,0h76.9c6.32,0,12.07,2.59,16.24,6.75c4.17,4.17,6.75,9.91,6.75,16.24v62.88c0,6.32-2.59,12.07-6.75,16.24 c-4.17,4.17-9.91,6.75-16.24,6.75h-76.9c-6.32,0-12.07-2.59-16.24-6.75C2.59,97.94,0,92.2,0,85.87V22.99 c0-6.32,2.59-12.07,6.75-16.24C10.92,2.59,16.66,0,22.99,0L22.99,0z M4.95,77.35c0.86,3.22,2.56,6.11,4.86,8.41 c3.38,3.38,8.05,5.48,13.18,5.48h76.91c0.2,0,0.41,0,0.61-0.01l1.27-0.09c4.38-0.44,8.33-2.42,11.29-5.39c2.3-2.3,4-5.18,4.86-8.4 V22.99c0-4.96-2.03-9.47-5.3-12.74c-3.27-3.27-7.78-5.3-12.74-5.3h-76.9c-4.96,0-9.47,2.03-12.74,5.3 c-3.27,3.27-5.3,7.78-5.3,12.74V77.35L4.95,77.35z M65.43,33.77h18.04v6.43H71.26l-0.65,4.33c0.84-0.42,1.68-0.73,2.5-0.94 c0.83-0.21,1.64-0.32,2.45-0.32c2.73,0,4.96,0.88,6.66,2.63c1.7,1.75,2.55,3.95,2.55,6.61c0,1.87-0.44,3.66-1.31,5.38 c-0.88,1.72-2.12,3.04-3.73,3.95c-1.61,0.91-3.68,1.36-6.19,1.36c-1.8,0-3.35-0.18-4.64-0.55c-1.29-0.36-2.38-0.9-3.28-1.62 c-0.9-0.72-1.63-1.53-2.19-2.44c-0.56-0.91-1.03-2.04-1.4-3.4l7.68-0.89c0.19,1.31,0.62,2.3,1.31,2.98 c0.69,0.68,1.5,1.02,2.45,1.02c1.06,0,1.94-0.42,2.63-1.27c0.69-0.85,1.04-2.12,1.04-3.8c0-1.72-0.35-2.98-1.04-3.79 c-0.69-0.8-1.62-1.21-2.78-1.21c-0.73,0-1.45,0.19-2.13,0.57c-0.51,0.28-1.07,0.77-1.68,1.5l-6.48-0.99L65.43,33.77L65.43,33.77z M38.1,33.77h20.91V40H46.59v5.05h10.63v5.86H46.59v11.8H38.1V33.77L38.1,33.77z"/></g></svg>