<svg xmlns="http://www.w3.org/2000/svg" width="25" height="25" viewBox="0 0 512 512" data-v-c71160cc=""><g fill="white" data-v-c71160cc=""><path d="M150.9,370.2c11.5,11.5,24.6,20.9,38.7,27.9V279.1H108C111.2,313.5,126.2,345.5,150.9,370.2z" data-v-c71160cc=""/><path d="M217.6,408.7c12.4,3.3,25.3,5,38.4,5c12,0,23.9-1.4,35.3-4.2V279.1h-73.7V408.7z" data-v-c71160cc=""/><path d="M256,36C134.5,36,36,134.5,36,256s98.5,220,220,220s220-98.5,220-220S377.5,36,256,36z M380.9,390&#xA;              c-33.4,33.4-77.7,51.7-124.9,51.7c-47.2,0-91.6-18.4-124.9-51.7c-33.3-33.3-51.7-77.7-51.7-124.9c0-7.7,6.3-14,14-14h325.3&#xA;              c3.7,0,7.3,1.5,9.9,4.1c2.6,2.6,4.1,6.2,4.1,9.9C432.6,312.3,414.3,356.6,380.9,390z" data-v-c71160cc=""/><path d="M319.3,399.6c15.3-7.2,29.5-17.1,41.8-29.5c24.7-24.7,39.7-56.7,42.9-91.1h-84.7V399.6z" data-v-c71160cc=""/></g></svg>